<svg width="40" height="40" viewBox="0 0 40 40" fill="none" xmlns="http://www.w3.org/2000/svg">
<path fill-rule="evenodd" clip-rule="evenodd" d="M28.3334 15H36.6666V25H28.3334C25.5719 25 23.3334 22.7614 23.3334 20C23.3334 17.2386 25.5719 15 28.3334 15ZM28.3334 21.6666C29.2537 21.6666 30 20.9205 30 20C30 19.0795 29.2537 18.3334 28.3334 18.3334C27.4129 18.3334 26.6666 19.0795 26.6666 20C26.6666 20.9205 27.4129 21.6666 28.3334 21.6666Z" fill="black"/>
<path fill-rule="evenodd" clip-rule="evenodd" d="M12.9311 6.6665H27.0689C28.4105 6.66649 29.5177 6.66647 30.4197 6.74017C31.3565 6.8167 32.2177 6.98098 33.0266 7.39313C34.281 8.03229 35.3009 9.05215 35.94 10.3066C36.3522 11.1155 36.5165 11.9766 36.593 12.9134C36.6667 13.8154 36.6666 14.9227 36.6666 16.2643V23.7354C36.6666 25.077 36.6667 26.1843 36.593 27.0862C36.5165 28.023 36.3522 28.8842 35.94 29.6932C35.3009 30.9475 34.281 31.9674 33.0266 32.6065C32.2177 33.0187 31.3565 33.183 30.4197 33.2595C29.5177 33.3332 28.4104 33.3332 27.0687 33.3332H12.9312C11.5896 33.3332 10.4823 33.3332 9.58028 33.2595C8.64345 33.183 7.78228 33.0187 6.97339 32.6065C5.71896 31.9674 4.6991 30.9475 4.05994 29.6932C3.64779 28.8842 3.48351 28.023 3.40698 27.0862C3.33328 26.1842 3.3333 25.0769 3.33331 23.7353V16.2643C3.3333 14.9227 3.33328 13.8154 3.40698 12.9134C3.48351 11.9766 3.64779 11.1155 4.05994 10.3066C4.6991 9.05215 5.71896 8.03229 6.97339 7.39313C7.78228 6.98098 8.64345 6.8167 9.58028 6.74017C10.4823 6.66647 11.5895 6.66649 12.9311 6.6665ZM9.85171 10.0624C9.12103 10.1221 8.74735 10.2303 8.48669 10.3632C7.85948 10.6827 7.34954 11.1927 7.02996 11.8199C6.89715 12.0805 6.78894 12.4542 6.72924 13.1849C6.66795 13.935 6.66665 14.9055 6.66665 16.3332V23.6665C6.66665 25.0942 6.66795 26.0647 6.72924 26.8148C6.78894 27.5454 6.89715 27.9192 7.02996 28.1798C7.34954 28.807 7.85948 29.3169 8.48669 29.6365C8.74735 29.7693 9.12103 29.8775 9.85171 29.9373C10.6019 29.9985 11.5724 29.9998 13 29.9998H27C28.4276 29.9998 29.3981 29.9985 30.1482 29.9373C30.879 29.8775 31.2526 29.7693 31.5132 29.6365C32.1405 29.3169 32.6505 28.807 32.97 28.1798C33.1029 27.9192 33.211 27.5454 33.2707 26.8148C33.332 26.0647 33.3334 25.0942 33.3334 23.6665V16.3332C33.3334 14.9055 33.332 13.935 33.2707 13.1849C33.211 12.4542 33.1029 12.0805 32.97 11.8199C32.6505 11.1927 32.1405 10.6827 31.5132 10.3632C31.2526 10.2303 30.879 10.1221 30.1482 10.0624C29.3981 10.0011 28.4276 9.99984 27 9.99984H13C11.5724 9.99984 10.6019 10.0011 9.85171 10.0624Z" fill="black"/>
</svg>
