<svg width="19" height="19" viewBox="0 0 19 19" fill="none" xmlns="http://www.w3.org/2000/svg">
<path fill-rule="evenodd" clip-rule="evenodd" d="M1.81978 11.0429C2.10828 10.5761 2.6179 10.292 3.16665 10.292C3.31283 10.292 3.487 10.2918 3.68024 10.2873C3.52388 10.0297 3.38922 9.75774 3.27705 9.47331C2.72107 8.06352 2.75891 6.46454 3.24119 4.94882C3.44551 4.30668 4.03388 3.86421 4.7075 3.84614C5.38112 3.82805 5.99237 4.23831 6.23085 4.86856C6.49704 5.57207 6.8206 5.84954 7.18739 6.01656C7.42132 6.12308 7.71439 6.2026 8.09347 6.25536C8.61812 4.44168 10.2558 3.16699 12.2708 3.16699C12.8637 3.16699 13.4269 3.30654 13.8911 3.49179C14.0805 3.56735 14.2723 3.65808 14.4578 3.76357L15.5821 3.58288C16.1451 3.49239 16.7133 3.71167 17.0696 4.15695C17.4258 4.60224 17.5153 5.20471 17.3034 5.73419L16.6218 7.43811C16.567 10.1387 15.7974 12.2702 14.3305 13.7371C12.8107 15.2569 10.7719 15.8336 8.70832 15.8336C7.36004 15.8336 5.96667 15.6111 4.7557 15.1267C3.56398 14.6499 2.38311 13.8487 1.75047 12.5835C1.50506 12.0925 1.53129 11.5097 1.81978 11.0429ZM15.0417 7.12532L15.8333 5.14615L14.074 5.42889C14.0602 5.41559 14.0459 5.40229 14.0309 5.38901C13.6636 5.06352 12.9469 4.75032 12.2708 4.75032C10.6875 4.75032 9.49999 5.93782 9.49999 7.52115V7.91699C8.92596 7.91699 8.39818 7.89387 7.91665 7.82926C7.18269 7.73078 6.55618 7.53592 6.0371 7.17965C5.4877 6.80258 5.05867 6.2447 4.74999 5.42889C4.47043 6.3075 4.38831 7.172 4.50362 7.95766C4.62296 8.7707 4.95373 9.4993 5.49592 10.0717C5.91351 10.5126 6.45654 10.8608 7.12499 11.0837C6.5657 11.4565 5.83082 11.6538 5.12708 11.7581C5.09712 11.7626 5.06721 11.7668 5.03736 11.7709C4.28014 11.8753 3.56959 11.8753 3.16665 11.8753C3.4832 12.5084 4.05289 13.015 4.7745 13.3949C5.85759 13.9652 7.28296 14.2503 8.70832 14.2503C12.2708 14.2503 15.0417 12.2711 15.0417 7.12532Z" fill="black"/>
</svg>
