<svg width="39" height="12" viewBox="0 0 39 12" fill="none" xmlns="http://www.w3.org/2000/svg">
<path d="M4.716 11.084C4.116 11.084 3.556 10.976 3.036 10.76C2.524 10.536 2.072 10.228 1.68 9.836C1.288 9.444 0.98 8.992 0.756 8.48C0.54 7.96 0.432 7.4 0.432 6.8C0.432 6.2 0.54 5.644 0.756 5.132C0.98 4.612 1.288 4.156 1.68 3.764C2.072 3.372 2.524 3.068 3.036 2.852C3.556 2.628 4.116 2.516 4.716 2.516C5.308 2.516 5.86 2.628 6.372 2.852C6.892 3.068 7.348 3.372 7.74 3.764C8.14 4.156 8.448 4.612 8.664 5.132C8.888 5.644 9 6.2 9 6.8C9 7.4 8.888 7.96 8.664 8.48C8.448 8.992 8.14 9.444 7.74 9.836C7.348 10.228 6.892 10.536 6.372 10.76C5.86 10.976 5.308 11.084 4.716 11.084ZM4.932 9.296C4.452 9.296 4.016 9.188 3.624 8.972C3.24 8.756 2.932 8.46 2.7 8.084C2.476 7.708 2.364 7.28 2.364 6.8C2.364 6.344 2.476 5.928 2.7 5.552C2.932 5.176 3.24 4.876 3.624 4.652C4.016 4.428 4.452 4.316 4.932 4.316C5.204 4.316 5.472 4.364 5.736 4.46C6 4.548 6.248 4.68 6.48 4.856L6.036 5.756C5.884 5.644 5.744 5.556 5.616 5.492C5.488 5.42 5.368 5.368 5.256 5.336C5.144 5.304 5.036 5.288 4.932 5.288C4.636 5.288 4.372 5.356 4.14 5.492C3.908 5.628 3.724 5.812 3.588 6.044C3.46 6.268 3.396 6.52 3.396 6.8C3.396 7.096 3.46 7.36 3.588 7.592C3.724 7.824 3.908 8.004 4.14 8.132C4.372 8.26 4.636 8.324 4.932 8.324C5.116 8.324 5.304 8.288 5.496 8.216C5.688 8.136 5.884 8.02 6.084 7.868L6.528 8.78C6.288 8.948 6.032 9.076 5.76 9.164C5.488 9.252 5.212 9.296 4.932 9.296ZM4.716 10.196C5.188 10.196 5.628 10.108 6.036 9.932C6.452 9.756 6.812 9.516 7.116 9.212C7.428 8.9 7.672 8.54 7.848 8.132C8.024 7.716 8.112 7.272 8.112 6.8C8.112 6.32 8.024 5.876 7.848 5.468C7.672 5.06 7.428 4.7 7.116 4.388C6.812 4.076 6.452 3.836 6.036 3.668C5.628 3.492 5.188 3.404 4.716 3.404C4.244 3.404 3.8 3.492 3.384 3.668C2.976 3.836 2.616 4.076 2.304 4.388C2 4.7 1.76 5.06 1.584 5.468C1.408 5.876 1.32 6.32 1.32 6.8C1.32 7.272 1.408 7.716 1.584 8.132C1.76 8.54 2 8.9 2.304 9.212C2.616 9.516 2.976 9.756 3.384 9.932C3.8 10.108 4.244 10.196 4.716 10.196Z" fill="#27272A"/>
<path d="M11.116 11L10.72 10.016L13.288 7.124C13.424 6.98 13.564 6.816 13.708 6.632C13.86 6.44 14.004 6.244 14.14 6.044C14.276 5.844 14.384 5.648 14.464 5.456C14.552 5.256 14.596 5.068 14.596 4.892C14.596 4.636 14.544 4.42 14.44 4.244C14.344 4.06 14.2 3.92 14.008 3.824C13.824 3.728 13.6 3.68 13.336 3.68C13.104 3.68 12.876 3.748 12.652 3.884C12.428 4.02 12.224 4.212 12.04 4.46C11.856 4.708 11.712 4.996 11.608 5.324L10.612 4.7C10.748 4.236 10.952 3.84 11.224 3.512C11.504 3.176 11.836 2.92 12.22 2.744C12.612 2.568 13.036 2.48 13.492 2.48C13.964 2.48 14.384 2.58 14.752 2.78C15.12 2.972 15.408 3.244 15.616 3.596C15.824 3.94 15.928 4.34 15.928 4.796C15.928 4.98 15.908 5.168 15.868 5.36C15.828 5.552 15.764 5.752 15.676 5.96C15.588 6.16 15.476 6.372 15.34 6.596C15.204 6.812 15.04 7.04 14.848 7.28C14.664 7.52 14.452 7.772 14.212 8.036L12.304 10.112L12.064 9.752H16.192V11H11.116ZM20.2102 11.12C19.5702 11.12 19.0182 10.944 18.5542 10.592C18.0982 10.24 17.7462 9.744 17.4982 9.104C17.2502 8.456 17.1262 7.688 17.1262 6.8C17.1262 5.912 17.2502 5.148 17.4982 4.508C17.7462 3.86 18.0982 3.36 18.5542 3.008C19.0182 2.656 19.5702 2.48 20.2102 2.48C20.8502 2.48 21.4022 2.656 21.8662 3.008C22.3302 3.36 22.6862 3.86 22.9342 4.508C23.1822 5.148 23.3062 5.912 23.3062 6.8C23.3062 7.688 23.1822 8.456 22.9342 9.104C22.6862 9.744 22.3302 10.24 21.8662 10.592C21.4022 10.944 20.8502 11.12 20.2102 11.12ZM20.2102 9.944C20.7942 9.944 21.2462 9.672 21.5662 9.128C21.8862 8.576 22.0462 7.8 22.0462 6.8C22.0462 5.8 21.8862 5.028 21.5662 4.484C21.2462 3.932 20.7942 3.656 20.2102 3.656C19.6262 3.656 19.1742 3.932 18.8542 4.484C18.5342 5.028 18.3742 5.8 18.3742 6.8C18.3742 7.8 18.5342 8.576 18.8542 9.128C19.1742 9.672 19.6262 9.944 20.2102 9.944ZM24.9793 11L24.5833 10.016L27.1513 7.124C27.2873 6.98 27.4273 6.816 27.5713 6.632C27.7233 6.44 27.8673 6.244 28.0033 6.044C28.1393 5.844 28.2473 5.648 28.3273 5.456C28.4153 5.256 28.4593 5.068 28.4593 4.892C28.4593 4.636 28.4073 4.42 28.3033 4.244C28.2073 4.06 28.0633 3.92 27.8713 3.824C27.6873 3.728 27.4633 3.68 27.1993 3.68C26.9673 3.68 26.7393 3.748 26.5153 3.884C26.2913 4.02 26.0873 4.212 25.9033 4.46C25.7193 4.708 25.5753 4.996 25.4713 5.324L24.4753 4.7C24.6113 4.236 24.8153 3.84 25.0873 3.512C25.3673 3.176 25.6993 2.92 26.0833 2.744C26.4753 2.568 26.8993 2.48 27.3553 2.48C27.8273 2.48 28.2473 2.58 28.6153 2.78C28.9833 2.972 29.2713 3.244 29.4793 3.596C29.6873 3.94 29.7913 4.34 29.7913 4.796C29.7913 4.98 29.7713 5.168 29.7313 5.36C29.6913 5.552 29.6273 5.752 29.5393 5.96C29.4513 6.16 29.3393 6.372 29.2033 6.596C29.0673 6.812 28.9033 7.04 28.7113 7.28C28.5273 7.52 28.3153 7.772 28.0753 8.036L26.1673 10.112L25.9273 9.752H30.0553V11H24.9793ZM33.4495 11.12C32.8575 11.12 32.3415 10.984 31.9015 10.712C31.4695 10.44 31.0615 9.984 30.6775 9.344L31.6855 8.708C31.8855 9.004 32.0815 9.248 32.2735 9.44C32.4735 9.624 32.6775 9.76 32.8855 9.848C33.0935 9.936 33.3135 9.98 33.5455 9.98C33.8255 9.98 34.0855 9.912 34.3255 9.776C34.5655 9.632 34.7575 9.436 34.9015 9.188C35.0455 8.94 35.1175 8.66 35.1175 8.348C35.1175 8.036 35.0615 7.772 34.9495 7.556C34.8375 7.332 34.6735 7.164 34.4575 7.052C34.2415 6.932 33.9855 6.872 33.6895 6.872C33.5535 6.872 33.4095 6.888 33.2575 6.92C33.1135 6.944 32.9575 6.984 32.7895 7.04C32.6215 7.088 32.4375 7.152 32.2375 7.232L31.8775 6.284L34.4695 3.428L34.7215 3.8H31.1455V2.6H35.9575L36.1975 3.08L33.4495 6.128L33.1495 5.816C33.2135 5.784 33.3175 5.756 33.4615 5.732C33.6135 5.7 33.7375 5.684 33.8335 5.684C34.1855 5.684 34.5135 5.752 34.8175 5.888C35.1295 6.016 35.3975 6.2 35.6215 6.44C35.8535 6.672 36.0335 6.948 36.1615 7.268C36.2975 7.58 36.3655 7.916 36.3655 8.276C36.3655 8.82 36.2335 9.308 35.9695 9.74C35.7135 10.164 35.3655 10.5 34.9255 10.748C34.4855 10.996 33.9935 11.12 33.4495 11.12Z" fill="#27272A"/>
</svg>
