<svg width="19" height="19" viewBox="0 0 19 19" fill="none" xmlns="http://www.w3.org/2000/svg">
<path d="M10.2917 17.3779C10.0313 17.4038 9.76719 17.4169 9.5 17.4169C9.23281 17.4169 8.96871 17.4038 8.70833 17.3779V11.0837H7.91667C7.47944 11.0837 7.125 10.7292 7.125 10.292C7.125 9.85477 7.47944 9.50032 7.91667 9.50032H8.70833V7.91699C8.70833 6.60532 9.77165 5.54199 11.0833 5.54199H11.875C12.3122 5.54199 12.6667 5.89643 12.6667 6.33365C12.6667 6.77088 12.3122 7.12532 11.875 7.12532H11.0833C10.6461 7.12532 10.2917 7.47977 10.2917 7.91699V9.50032H11.875C12.3122 9.50032 12.6667 9.85477 12.6667 10.292C12.6667 10.7292 12.3122 11.0837 11.875 11.0837H10.2917V17.3779Z" fill="black"/>
<path fill-rule="evenodd" clip-rule="evenodd" d="M9.49997 15.8331C12.9978 15.8331 15.8333 12.9974 15.8333 9.49968C15.8333 6.00187 12.9978 3.16635 9.49997 3.16635C6.00217 3.16635 3.16664 6.00187 3.16664 9.49968C3.16664 12.9974 6.00217 15.8331 9.49997 15.8331ZM9.49997 17.4164C13.8722 17.4164 17.4167 13.8719 17.4167 9.49968C17.4167 5.12742 13.8722 1.58301 9.49997 1.58301C5.12772 1.58301 1.58331 5.12742 1.58331 9.49968C1.58331 13.8719 5.12772 17.4164 9.49997 17.4164Z" fill="black"/>
</svg>
