<svg width="19" height="19" viewBox="0 0 19 19" fill="none" xmlns="http://www.w3.org/2000/svg">
<path d="M15.689 17.7025H3.29242C2.18218 17.7025 1.27887 16.7992 1.27887 15.689V3.29236C1.27887 2.18212 2.18218 1.27881 3.29242 1.27881H15.689C16.7992 1.27881 17.7026 2.18212 17.7026 3.29236V15.689C17.7026 16.7992 16.7992 17.7025 15.689 17.7025ZM3.29242 2.37372C2.78584 2.37372 2.37378 2.78577 2.37378 3.29236V15.689C2.37378 16.1953 2.78584 16.6076 3.29242 16.6076H15.689C16.1954 16.6076 16.6077 16.1953 16.6077 15.689V3.29236C16.6077 2.78577 16.1954 2.37372 15.689 2.37372H3.29242Z" fill="black"/>
<path d="M6.97056 7.96143H5.07819V14.0455H6.97056V7.96143Z" fill="black"/>
<path d="M6.02435 7.12963C5.4185 7.12963 4.92853 6.63838 4.92853 6.03344C4.92853 5.42796 5.4185 4.93652 6.02435 4.93652C6.62892 4.93652 7.12018 5.42777 7.12018 6.03344C7.12018 6.63838 6.62874 7.12963 6.02435 7.12963Z" fill="black"/>
<path d="M14.0529 14.0447H12.1629V11.086C12.1629 10.3804 12.1506 9.47286 11.1802 9.47286C10.1962 9.47286 10.046 10.242 10.046 11.0353V14.0447H8.15601V7.96079H9.96973V8.79274H9.99546C10.2478 8.31426 10.8648 7.81006 11.7845 7.81006C13.6994 7.81006 14.0529 9.06975 14.0529 10.7079V14.0447Z" fill="black"/>
</svg>
