<svg width="24" height="24" viewBox="0 0 24 24" fill="none" xmlns="http://www.w3.org/2000/svg">
<path fill-rule="evenodd" clip-rule="evenodd" d="M8.99994 16.001C7.34308 16.001 5.99994 17.3441 5.99994 19.001C5.99994 19.5533 6.44765 20.001 6.99994 20.001H16.9999C17.5522 20.001 17.9999 19.5533 17.9999 19.001C17.9999 17.3441 16.6568 16.001 14.9999 16.001H8.99994ZM3.99994 19.001C3.99994 16.2396 6.23852 14.001 8.99994 14.001H14.9999C17.7614 14.001 19.9999 16.2396 19.9999 19.001C19.9999 20.6578 18.6568 22.001 16.9999 22.001H6.99994C5.34309 22.001 3.99994 20.6578 3.99994 19.001Z" fill="black"/>
<path fill-rule="evenodd" clip-rule="evenodd" d="M11.9999 4.00098C10.3431 4.00098 8.99994 5.34412 8.99994 7.00098C8.99994 8.65783 10.3431 10.001 11.9999 10.001C13.6568 10.001 14.9999 8.65783 14.9999 7.00098C14.9999 5.34412 13.6568 4.00098 11.9999 4.00098ZM6.99994 7.00098C6.99994 4.23955 9.23852 2.00098 11.9999 2.00098C14.7614 2.00098 16.9999 4.23955 16.9999 7.00098C16.9999 9.7624 14.7614 12.001 11.9999 12.001C9.23852 12.001 6.99994 9.7624 6.99994 7.00098Z" fill="black"/>
</svg>
