<svg width="19" height="19" viewBox="0 0 19 19" fill="none" xmlns="http://www.w3.org/2000/svg">
<path d="M1.48116 9.3156L5.3119 10.7453L6.79464 15.5139C6.88953 15.819 7.26299 15.932 7.51077 15.7293L9.64616 13.9886C9.86993 13.8061 10.1888 13.7972 10.4226 13.9669L14.2741 16.7631C14.5392 16.9557 14.9149 16.8105 14.9814 16.4901L17.8028 2.91912C17.8753 2.56911 17.5315 2.27714 17.1982 2.40608L1.47672 8.47101C1.0887 8.62053 1.09203 9.16983 1.48116 9.3156ZM6.55567 9.9843L14.0423 5.37328C14.1769 5.29068 14.3153 5.47261 14.1996 5.5798L8.02109 11.3231C7.80385 11.5252 7.66378 11.7958 7.62409 12.0896L7.41372 13.6492C7.38569 13.8575 7.09331 13.8781 7.03572 13.6766L6.22628 10.8323C6.13365 10.5079 6.26871 10.1614 6.55567 9.9843Z" fill="black"/>
</svg>
