<svg width="32" height="32" viewBox="0 0 32 32" fill="none" xmlns="http://www.w3.org/2000/svg">
<path fill-rule="evenodd" clip-rule="evenodd" d="M4 20.3216V15.9999C4 15.2635 4.59695 14.6665 5.33333 14.6665C6.06971 14.6665 6.66667 15.2635 6.66667 15.9999V20.2665C6.66667 21.4086 6.6677 22.185 6.71674 22.7851C6.7645 23.3697 6.85106 23.6686 6.95732 23.8772C7.21298 24.3789 7.62093 24.7869 8.12269 25.0425C8.33123 25.1488 8.63016 25.2354 9.21472 25.2831C9.81484 25.3322 10.5912 25.3332 11.7333 25.3332H20.2667C21.4088 25.3332 22.1852 25.3322 22.7853 25.2831C23.3698 25.2354 23.6688 25.1488 23.8773 25.0425C24.3791 24.7869 24.787 24.3789 25.0427 23.8772C25.1489 23.6686 25.2355 23.3697 25.2833 22.7851C25.3323 22.185 25.3333 21.4086 25.3333 20.2665V15.9999C25.3333 15.2635 25.9303 14.6665 26.6667 14.6665C27.403 14.6665 28 15.2635 28 15.9999V20.3214C28 21.3948 28 22.2807 27.9411 23.0023C27.8798 23.7518 27.7484 24.4407 27.4187 25.0878C26.9074 26.0913 26.0915 26.9072 25.088 27.4186C24.4408 27.7483 23.7519 27.8797 23.0024 27.9409C22.2808 27.9999 21.395 27.9999 20.3217 27.9999H11.6783C10.605 27.9999 9.71916 27.9999 8.99757 27.9409C8.2481 27.8797 7.55917 27.7483 6.91205 27.4186C5.90852 26.9072 5.09262 26.0913 4.5813 25.0878C4.25158 24.4407 4.12016 23.7518 4.05893 23.0023C3.99997 22.2807 3.99998 21.3949 4 20.3216Z" fill="black"/>
<path d="M11.0572 16.9428C10.5365 16.4221 10.5365 15.5779 11.0572 15.0572C11.5779 14.5365 12.422 14.5365 12.9427 15.0572L14.6667 16.781V5.33333C14.6667 4.59695 15.2636 4 16 4C16.7364 4 17.3333 4.59695 17.3333 5.33333V16.781L19.0571 15.0572C19.5779 14.5365 20.4221 14.5365 20.9428 15.0572C21.4635 15.5779 21.4635 16.4221 20.9428 16.9428L16.9428 20.9428C16.4221 21.4635 15.5779 21.4635 15.0572 20.9428L11.0572 16.9428Z" fill="black"/>
</svg>
