<svg width="182" height="17" viewBox="0 0 182 17" fill="none" xmlns="http://www.w3.org/2000/svg">
<g clip-path="url(#clip0_1804_4)">
<path d="M46.5187 14.8794H46.3683V16.7064H44.4767V0H46.4435V6.99533H46.5939C46.9921 6.39357 48.4368 4.83378 51.1513 4.83378C54.8105 4.83378 57.4497 7.3734 57.4497 10.9383C57.4497 14.4796 54.8104 16.9974 51.0009 16.9974C48.1868 16.9954 46.8417 15.303 46.5187 14.8794ZM55.4321 10.9364C55.4321 8.30769 53.5893 6.43712 50.9256 6.43712C48.3616 6.43712 46.3683 8.086 46.3683 10.9364C46.3683 13.3651 48.0607 15.4139 50.8748 15.4139C53.5893 15.4139 55.4321 13.6541 55.4321 10.9364Z" fill="black"/>
<path d="M61.1576 13.2106V6.61707H58.7175V5.12458H60.6599C61.0094 5.12458 61.2815 4.92465 61.2815 4.5446V1.76151H63.1244V5.12458H67.1088V6.61707H63.1244V13.1888C63.1244 14.4359 63.6465 15.1722 65.142 15.1722H66.934V16.7102H65.0159C62.6266 16.7082 61.1576 15.5503 61.1576 13.2106Z" fill="black"/>
<path d="M68.9626 10.9145C68.9626 7.48414 71.7766 4.83367 75.5862 4.83367C78.4003 4.83367 81.013 6.34794 81.7121 8.93309H79.6702C79.1481 7.41882 77.5043 6.439 75.6371 6.439C72.874 6.439 71.0068 8.39863 71.0068 10.9165C71.0068 13.5234 72.9735 15.3939 75.688 15.3939C77.5552 15.3939 79.2233 14.4141 79.7211 12.8999H81.7387C81.0661 15.4831 78.4269 16.9993 75.6128 16.9993C71.7014 16.9953 68.9626 14.3449 68.9626 10.9145Z" fill="black"/>
<path d="M87.8339 5.12267H89.8007V6.79332H89.9511C90.5728 5.72442 91.8183 4.83367 93.7364 4.83367C95.6788 4.83367 97.0969 5.68087 97.8203 6.94969H97.9951C98.8667 5.4572 100.285 4.83367 102.103 4.83367C104.99 4.83367 106.86 6.6607 106.86 9.20031V16.7083H104.893V9.78028C104.893 7.59697 103.674 6.48255 101.756 6.48255C99.9375 6.48255 98.3446 7.64052 98.3446 9.80202V16.7083H96.3779V9.44377C96.3779 7.59499 94.9841 6.48057 93.1656 6.48057C91.3471 6.48057 89.8051 7.77314 89.8051 9.73277V16.7063H87.8383V5.12267H87.8339Z" fill="black"/>
<path d="M109.594 10.9348C109.594 7.3698 112.233 4.83018 115.892 4.83018C118.607 4.83018 120.049 6.38998 120.45 6.99173H120.6V5.12116H122.567V16.7048H120.675V14.8778H120.525C120.202 15.3014 118.857 16.9938 116.043 16.9938C112.233 16.9938 109.594 14.4779 109.594 10.9348ZM120.673 10.9348C120.673 8.08239 118.682 6.4355 116.116 6.4355C113.452 6.4355 111.609 8.30607 111.609 10.9348C111.609 13.6525 113.452 15.4123 116.166 15.4123C118.981 15.4123 120.673 13.3635 120.673 10.9348Z" fill="black"/>
<path d="M126.16 5.12376H128.102V7.28531H128.253C128.627 6.30549 129.896 5.12376 131.788 5.12376H132.883V6.88349H131.812C129.447 6.88349 128.127 8.53235 128.127 10.7375V16.7074H126.16V5.12376Z" fill="black"/>
<path d="M143.863 16.7064L139.754 10.9146L137.589 12.9871V16.7064H135.622V0H137.589V10.5821H137.739L143.292 5.12476H145.781L141.075 9.62406L146.104 16.7084H143.863V16.7064Z" fill="black"/>
<path d="M147.263 10.9145C147.263 7.21692 150.077 4.83367 153.612 4.83367C157.546 4.83367 159.887 7.41684 159.887 10.7601V11.54H149.329C149.429 13.856 151.097 15.3939 153.761 15.3939C155.48 15.3939 157.121 14.6596 157.719 13.2997H159.76C159.039 15.4612 156.774 16.9973 153.736 16.9973C149.779 16.9953 147.263 14.3904 147.263 10.9145ZM157.796 9.97819C157.621 7.66229 155.805 6.43702 153.612 6.43702C151.447 6.43702 149.579 7.84043 149.38 9.97819H157.796Z" fill="black"/>
<path d="M163.654 13.2106V6.61707H161.214V5.12458H163.156C163.506 5.12458 163.778 4.92465 163.778 4.5446V1.76151H165.621V5.12458H169.605V6.61707H165.621V13.1888C165.621 14.4359 166.143 15.1722 167.638 15.1722H169.43V16.7102H167.512C165.123 16.7082 163.654 15.5503 163.654 13.2106Z" fill="black"/>
<path d="M171.707 13.3433H173.625C173.848 14.725 174.943 15.4593 176.837 15.4593C178.779 15.4593 179.85 14.6121 179.85 13.4323C179.85 10.1801 172.107 12.6525 172.107 8.06412C172.107 6.10448 174.074 4.83367 176.788 4.83367C179.178 4.83367 181.171 6.08072 181.37 8.17496H179.479C179.304 7.08429 178.383 6.34794 176.665 6.34794C175.045 6.34794 174.001 7.06054 174.001 8.06412C174.001 11.0055 181.768 8.55502 181.768 13.3433C181.768 15.5265 179.751 16.9973 176.74 16.9973C173.676 16.9953 171.932 15.5028 171.707 13.3433Z" fill="black"/>
<g opacity="0.4">
<path opacity="0.4" d="M3.1662 12.6552L5.63956 16.2874C5.79 16.5091 5.61301 16.7942 5.32099 16.7942H0.374261C0.0822361 16.7942 -0.0969609 16.5091 0.0556885 16.2874L2.52905 12.6552C2.67285 12.4414 3.02018 12.4414 3.1662 12.6552Z" fill="#00B287"/>
<path opacity="0.4" d="M7.73245 6.40951L10.2058 10.0418C10.3563 10.2634 10.1793 10.5485 9.88724 10.5485H4.94051C4.64849 10.5485 4.46929 10.2634 4.62194 10.0418L7.09309 6.40951C7.23911 6.19573 7.58644 6.19573 7.73245 6.40951Z" fill="#00B287"/>
</g>
<path d="M30.5634 12.6552L33.0368 16.2874C33.1872 16.5091 33.0102 16.7942 32.7182 16.7942H27.7737C27.4816 16.7942 27.3025 16.5091 27.4551 16.2874L29.9285 12.6552C30.0723 12.4414 30.4174 12.4414 30.5634 12.6552Z" fill="#00B287"/>
<path d="M21.4311 12.6552L23.9045 16.2874C24.0549 16.5091 23.8779 16.7942 23.5859 16.7942H18.6392C18.3471 16.7942 18.1679 16.5091 18.3206 16.2874L20.7939 12.6552C20.9377 12.4414 21.2851 12.4414 21.4311 12.6552Z" fill="#00B287"/>
<path d="M12.2988 12.6552L14.7699 16.2874C14.9204 16.5091 14.7434 16.7942 14.4513 16.7942H9.50683C9.2148 16.7942 9.03561 16.5091 9.18826 16.2874L11.6616 12.6552C11.8054 12.4414 12.1528 12.4414 12.2988 12.6552Z" fill="#00B287"/>
<path d="M16.8649 6.40602L19.3383 10.0383C19.4887 10.2599 19.3117 10.545 19.0197 10.545H14.073C13.781 10.545 13.6018 10.2599 13.7544 10.0383L16.2278 6.40602C16.3716 6.19224 16.7189 6.19224 16.8649 6.40602Z" fill="#00B287"/>
<path d="M21.431 0.160334L23.9044 3.7926C24.0548 4.0143 23.8778 4.29934 23.5858 4.29934H18.6391C18.3471 4.29934 18.1679 4.0143 18.3205 3.7926L20.7939 0.160334C20.9377 -0.0534447 21.285 -0.0534447 21.431 0.160334Z" fill="#00B287"/>
<path d="M25.9972 6.40602L28.4706 10.0383C28.621 10.2599 28.4441 10.545 28.152 10.545H23.2075C22.9155 10.545 22.7363 10.2599 22.8889 10.0383L25.3623 6.40602C25.5039 6.19224 25.8512 6.19224 25.9972 6.40602Z" fill="#00B287"/>
</g>
<defs>
<clipPath id="clip0_1804_4">
<rect width="182" height="17" fill="white"/>
</clipPath>
</defs>
</svg>
