<svg width="19" height="19" viewBox="0 0 19 19" fill="none" xmlns="http://www.w3.org/2000/svg">
<path fill-rule="evenodd" clip-rule="evenodd" d="M2.375 6.33333C2.375 4.1472 4.1472 2.375 6.33333 2.375H12.6667C14.8528 2.375 16.625 4.1472 16.625 6.33333V12.6667C16.625 14.8528 14.8528 16.625 12.6667 16.625H6.33333C4.1472 16.625 2.375 14.8528 2.375 12.6667V6.33333ZM6.33333 3.95833C5.02165 3.95833 3.95833 5.02165 3.95833 6.33333V12.6667C3.95833 13.9783 5.02165 15.0417 6.33333 15.0417H12.6667C13.9783 15.0417 15.0417 13.9783 15.0417 12.6667V6.33333C15.0417 5.02165 13.9783 3.95833 12.6667 3.95833H6.33333Z" fill="black"/>
<path fill-rule="evenodd" clip-rule="evenodd" d="M13.0625 6.72885C13.4998 6.72885 13.8543 6.3744 13.8543 5.93718C13.8543 5.49995 13.4998 5.14551 13.0625 5.14551C12.6253 5.14551 12.2708 5.49995 12.2708 5.93718C12.2708 6.3744 12.6253 6.72885 13.0625 6.72885ZM7.91671 9.49968C7.91671 8.62523 8.62559 7.91635 9.50004 7.91635C10.3745 7.91635 11.0834 8.62523 11.0834 9.49968C11.0834 10.3741 10.3745 11.083 9.50004 11.083C8.62559 11.083 7.91671 10.3741 7.91671 9.49968ZM9.50004 6.33301C7.75114 6.33301 6.33337 7.75078 6.33337 9.49968C6.33337 11.2486 7.75114 12.6664 9.50004 12.6664C11.2489 12.6664 12.6668 11.2486 12.6668 9.49968C12.6668 7.75078 11.2489 6.33301 9.50004 6.33301Z" fill="black"/>
</svg>
